<svg height="512" viewBox="0 0 57 59" width="512" xmlns="http://www.w3.org/2000/svg"><g id="Page-1" fill="none" fill-rule="evenodd"><g id="066---outgoing-call" fill-rule="nonzero"><g id="color_copy" transform="translate(1 1)"><path id="Shape" d="m32.755 39.27 13.545 2.139c.9781983.1526932 1.6995317.9949561 1.7 1.985v9.4c-.0044952.8793906-.5744326 1.6559909-1.412 1.924-10.718 3.51-24.522-.246-34.788-10.518-10.266-10.272-14.028-24.07-10.517-34.788.26800915-.83756742 1.04460937-1.4075048 1.924-1.412h9.4c.9900439.00046827 1.8323068.72180172 1.985 1.7l2.138 13.545c.0761327.4841539-.0269803.9794521-.29 1.393l-3.329 5.224c-.4787823.7611601-.4919055 1.726101-.034 2.5 2.5769704 4.3501475 6.2070733 7.9819699 10.556 10.561.7751396.4599463 1.7426293.4468147 2.505-.034l5.224-3.329c.4135479-.2630197.9088461-.3661327 1.393-.29z" fill="#e8edfc"/><path id="Shape" d="m11.591 9.7 2.139 13.545c.0761327.4841539-.0269803.9794521-.29 1.393l-3.329 5.224c-.4787823.7611601-.4919055 1.726101-.034 2.5 2.5769704 4.3501475 6.2070733 7.9819699 10.556 10.561.7751396.4599463 1.7426293.4468147 2.505-.034l.219-.14c-4.2295437-2.5610444-7.7608385-6.1273774-10.28-10.382-.4579055-.773899-.4447823-1.7388399.034-2.5l3.329-5.224c.2630197-.4135479.3661327-.9088461.29-1.393l-2.139-13.55c-.1526932-.97819828-.9949561-1.69953173-1.985-1.7h-3c.9900439.00046827 1.8323068.72180172 1.985 1.7z" fill="#cad9fc"/><path id="Shape" d="m46.3 41.409-13.545-2.139c-.463229-.0714574-.9368663.0212185-1.339.262l11.884 1.877c.9781983.1526932 1.6995317.9949561 1.7 1.985v9.4c-.0044952.8793906-.5744326 1.6559909-1.412 1.924-2.1940628.7045129-4.4712583 1.1173869-6.773 1.228 3.3052476.1886798 6.6171791-.2274721 9.773-1.228.8379165-.2681232 1.4079368-1.0452401 1.412-1.925v-9.4c-.0009605-.9896649-.7221757-1.8313655-1.7-1.984z" fill="#cad9fc"/><g fill="#e8edfc"><circle id="Oval" cx="29" cy="26" r="3"/><path id="Shape" d="m51 26c-.0126772-12.1450096-9.8549904-21.98732281-22-22v-4c14.3527783.01598214 25.9840179 11.6472217 26 26z"/><path id="Shape" d="m29 15c6.0751322 0 11 4.9248678 11 11h4c-.0093685-8.2803876-6.7196124-14.9906315-15-15z"/></g></g><g id="color" fill="#fff" transform="translate(1 9)"><path id="Shape" d="m6.207 0h-3c-.87939063.0044952-1.65599085.57443258-1.924 1.412-3.511 10.718.245 24.522 10.517 34.788 8.02 8.02 18.192 12.047 27.37 11.762.1 0 .206-.005.309-.01s.227 0 .339-.01c-8.534-.409-17.677-4.4-25.018-11.742-10.272-10.266-14.028-24.07-10.517-34.788.26800915-.83756742 1.04460937-1.4075048 1.924-1.412z"/></g><g id="Icons"><path id="Shape" d="m2.021 18.3-2-.032c.02511554-2.7730664.46740126-5.5265646 1.312-8.168l1.9.623c-.78111714 2.4507314-1.18967525 5.0048938-1.212 7.577z" fill="#fff"/><g fill="#428dff"><path id="Shape" d="m.021 18.265c-.02411132 2.5948173.24594547 5.1840078.805 7.718.58884003 2.515836 1.41936481 4.9688981 2.48 7.325 1.07209524 2.3446189 2.35468497 4.5871427 3.832 6.7 1.48933735 2.0963368 3.1450183 4.0693761 4.951 5.9 7.8 7.8 17.754 12.109 27.107 12.109 2.9532788.0126354 5.8898348-.4437121 8.7-1.352 1.2500842-.3995673 2.099926-1.5596175 2.104-2.872v-9.4c.0062499-1.4830162-1.0741179-2.7471316-2.54-2.972l-13.55-2.14c-.7252199-.1132586-1.4668552.0417525-2.086.436l-5.224 3.329c-.4458632.2800017-1.0111197.2861836-1.463.016-4.2017695-2.4905768-7.7094232-5.9982305-10.2-10.2-.2700791-.4514459-.2642848-1.0161905.015-1.462l3.329-5.223c.3946623-.6193385.5493665-1.3615631.435-2.087l-2.138-13.55c-.2248684-1.46588209-1.4889838-2.54624993-2.972-2.54h-9.4c-1.31204523.00264845-2.47279794.85079761-2.874 2.1-.15056804.5179948.13684424 1.0620545.6495863 1.2296402.51274205.1675857 1.06599303-.1017098 1.2504137-.6086402.13436984-.426259.52807822-.7174013.975-.721h9.4c.4985242-.00239781.9237658.3603333 1 .853l2.135 13.547c.0384174.2433326-.0135129.4923132-.146.7l-3.329 5.223c-.6848733 1.0781783-.7053633 2.449846-.053 3.548 2.6633109 4.4973275 6.4164047 8.2514531 10.913 10.916 1.0985887.6511311 2.4697358.6302624 3.548-.054l5.225-3.333c.208416-.1307136.456609-.1828341.7-.147l13.547 2.147c.4926667.0762342.8553978.5014758.853 1v9.4c-.0044468.4473624-.2969029.8408048-.724.974-10.754 3.514-24.01-.517-33.776-10.274-1.7245457-1.7499483-3.3056372-3.6356875-4.728-5.639-1.4067758-2.0099966-2.62780628-4.1437875-3.648-6.375-1.00433591-2.2314819-1.79130612-4.554551-2.35-6.937-.52347049-2.3802203-.77607567-4.8120064-.753-7.249.00314183-.5441157-.42532339-.9929208-.969-1.015-.2678662-.0111144-.52878725.0868847-.72310542.2715906-.19431817.184706-.30541702.4403242-.30789458.7084094z"/><path id="Shape" d="m1.376 15.3c-.55228475.0027614-1.00223858-.4427153-1.005-.995s.44271525-1.0022386.995-1.005h.01c.55228475 0 1 .4477153 1 1s-.44771525 1-1 1z"/><path id="Shape" d="m26 27c0 2.209139 1.790861 4 4 4s4-1.790861 4-4-1.790861-4-4-4-4 1.790861-4 4zm4-2c1.1045695 0 2 .8954305 2 2s-.8954305 2-2 2-2-.8954305-2-2 .8954305-2 2-2z"/><path id="Shape" d="m30 6c11.592497.01322591 20.9867741 9.407503 21 21 0 .5522847.4477153 1 1 1h4c.5522847 0 1-.4477153 1-1-.0165334-14.9048345-12.0951655-26.98346661-27-27-.5522847 0-1 .44771525-1 1v4c0 .55228475.4477153 1 1 1zm1-3.98c13.0149286.53686365 23.4431364 10.9650714 23.98 23.98h-2c-.5336737-11.910995-10.0689807-21.44586823-21.98-21.979z"/><path id="Shape" d="m29 16c0 .5522847.4477153 1 1 1 5.5203344.0060624 9.9939376 4.4796656 10 10 0 .5522847.4477153 1 1 1h4c.5522847 0 1-.4477153 1-1-.0104696-8.8322157-7.1677843-15.9895304-16-16-.5522847 0-1 .4477153-1 1zm2-2.965c6.9397509.5065191 12.4584809 6.0252491 12.965 12.965h-2.006c-.4966509-5.8344087-5.1245913-10.4623491-10.959-10.959z"/></g></g></g></g></svg>